<svg width="1024" height="1024" viewBox="0 0 1024 1024" fill="none" xmlns="http://www.w3.org/2000/svg">
<path d="M512 1024C794.77 1024 1024 794.77 1024 512C1024 229.23 794.77 0 512 0C229.23 0 0 229.23 0 512C0 794.77 229.23 1024 512 1024Z" fill="white"/>
<path d="M353.349 680.269C354.213 681.021 355.074 681.762 355.946 682.502C356.508 682.982 357.068 683.452 357.638 683.92C364.575 689.744 371.805 695.333 379.358 700.622L732.935 195.663C707.808 178.068 680.949 164.76 653.26 155.559C652.764 155.392 652.256 155.218 651.761 155.061C650.349 154.599 648.93 154.149 647.502 153.71C646.879 153.516 646.257 153.331 645.645 153.144C644.208 152.707 642.76 152.272 641.316 151.856C615.934 144.563 589.951 140.656 564.016 140.02C559.06 139.898 554.105 139.899 549.159 140.009C549.159 140.009 549.159 140.009 549.149 140.011C546.682 140.07 544.21 140.161 541.741 140.271L541.732 140.273C539.265 140.393 536.792 140.535 534.326 140.716C526.044 141.313 517.796 142.219 509.599 143.471C507.662 143.772 505.728 144.093 503.806 144.422C503.412 144.491 503.026 144.549 502.632 144.619C502.337 144.671 502.033 144.734 501.738 144.787C499.987 145.105 498.227 145.436 496.479 145.775C495.537 145.961 494.597 146.157 493.657 146.354C492.648 146.562 491.65 146.778 490.643 146.997C488.843 147.385 487.057 147.792 485.273 148.218C484.727 148.344 484.183 148.481 483.636 148.608C468.94 152.164 454.493 156.783 440.417 162.473C438.332 163.318 436.261 164.181 434.194 165.074C434.062 165.127 433.929 165.181 433.798 165.245C431.807 166.104 429.821 166.992 427.837 167.89C427.649 167.974 427.46 168.058 427.264 168.154C425.319 169.045 423.38 169.966 421.453 170.905C421.247 171.002 421.041 171.099 420.827 171.208C418.9 172.147 416.979 173.115 415.07 174.091C414.873 174.187 414.679 174.292 414.482 174.388C412.557 175.388 410.633 176.397 408.724 177.434C408.557 177.525 408.4 177.613 408.233 177.704C406.298 178.766 404.365 179.838 402.447 180.937C402.327 181.009 402.208 181.081 402.077 181.145C400.123 182.271 398.173 183.417 396.237 184.591C396.173 184.633 396.109 184.675 396.034 184.708C394.043 185.912 392.067 187.144 390.104 188.394C359.713 207.806 332.279 232.871 309.49 263.321C308.717 264.351 307.956 265.389 307.195 266.427C306 268.059 304.817 269.699 303.647 271.358C302.487 273.014 301.35 274.687 300.235 276.366C280.063 306.395 265.874 338.74 257.409 371.986C256.173 376.844 255.052 381.713 254.067 386.608C253.968 387.082 253.87 387.567 253.781 388.039C253.492 389.512 253.204 390.984 252.927 392.465C244.717 437.353 246.665 483.302 258.16 526.898C261.672 540.191 266.051 553.279 271.317 566.038C272.025 567.751 272.751 569.451 273.489 571.159C273.813 571.904 274.136 572.639 274.46 573.384C275.149 574.928 275.847 576.47 276.555 578.011C277 578.978 277.453 579.934 277.916 580.888C278.285 581.656 278.653 582.423 279.032 583.189C279.922 585.012 280.82 586.824 281.748 588.63C281.934 588.993 282.12 589.357 282.306 589.72C283.525 592.084 284.772 594.433 286.056 596.766C302.147 626.057 323.185 653.054 348.959 676.392C350.416 677.689 351.874 678.986 353.349 680.269ZM322.84 291.003L351.631 303.636L360.595 354.471L337.861 376.189L315.127 397.907L286.336 385.274L275.848 380.676C283.768 347.679 297.392 316.621 316.402 288.178L322.84 291.003ZM506.982 164.16L517.724 168.877L526.688 219.712L503.953 241.43L481.219 263.148L430.427 240.859L423.637 237.883L416.266 196.078C444.19 180.584 474.343 169.905 506.103 164.305C506.387 164.245 506.684 164.203 506.982 164.16ZM625.804 307.708L616.84 256.872L639.574 235.154L662.308 213.437L688.128 224.765L629.051 309.136L625.804 307.708ZM519.432 465.699L517.295 467.742L459.703 442.478L450.739 391.643L460.281 382.527L496.207 348.207L524.998 360.84L553.789 373.472L559.867 407.94L519.432 465.699ZM373.022 668.717L364.058 617.882L386.792 596.164L409.526 574.446L435.346 585.775L376.269 670.145L373.022 668.717ZM445.157 568.225L416.366 555.592L407.403 504.756L430.137 483.039L452.871 461.321L481.662 473.953L506.128 484.688L447.051 569.058L445.157 568.225ZM606.107 311.181L583.373 332.898L560.639 354.616L503.057 329.351L494.093 278.516L539.562 235.08L568.353 247.713L597.144 260.345L606.107 311.181ZM612.602 332.639L576.1 384.77L573.495 369.997L596.23 348.28L612.602 332.639ZM416.796 256.727L445.587 269.36L474.378 281.992L483.341 332.828L460.607 354.545L437.873 376.263L409.082 363.631L380.291 350.998L371.327 300.163L394.061 278.445L416.796 256.727ZM402.25 382.473L431.043 395.116L440.007 445.951L394.538 489.387L365.747 476.754L336.956 464.122L327.993 413.286L350.727 391.568L373.461 369.851L402.25 382.473ZM358.916 495.597L387.707 508.229L396.67 559.065L373.936 580.783L351.202 602.501L322.411 589.868L299.771 579.928C296.49 573.531 293.445 567.031 290.656 560.425L284.655 526.39L307.389 504.672L330.123 482.955L358.916 495.597ZM344.362 621.355L349.214 648.87C337.394 636.718 326.706 623.554 317.189 609.432L344.362 621.355ZM699.834 208.059L669.14 194.594L666.917 181.989C679.917 187.414 692.518 193.803 704.687 201.141L699.834 208.059ZM616.58 166.251C626.288 168.326 635.827 170.889 645.198 173.928L649.454 198.065L626.72 219.783L603.985 241.501L575.194 228.868L546.403 216.236L537.44 165.4L542.871 160.208C567.552 159.035 592.225 161.041 616.58 166.251ZM397.902 207.165L403.931 241.358L381.197 263.075L358.463 284.793L329.672 272.161L328.34 271.573C347.92 246.248 371.261 224.637 397.902 207.165ZM279.494 404.119L308.285 416.751L317.249 467.587L274.345 508.58C273.606 505.136 272.914 501.673 272.299 498.187C266.571 465.698 266.407 432.98 271.778 400.727L279.494 404.119Z" fill="#333333"/>
<path d="M789.974 647.993C790.151 647.21 790.336 646.416 790.512 645.633C790.799 644.324 791.076 643.016 791.353 641.708C791.519 640.917 791.674 640.128 791.828 639.329C800.089 597.672 799.562 555.005 790.728 514.057C790.635 513.647 790.551 513.225 790.456 512.805C790.053 510.977 789.629 509.153 789.196 507.331C789.153 507.145 789.111 506.96 789.068 506.775C788.604 504.836 788.111 502.902 787.609 500.98C783.756 486.265 778.823 471.823 772.822 457.771C771.818 455.42 770.785 453.073 769.714 450.744C768.655 448.423 767.57 446.126 766.453 443.825C766.44 443.807 766.435 443.778 766.421 443.76C765.31 441.488 764.169 439.222 763.01 436.969C762.994 436.931 762.979 436.903 762.962 436.866C761.78 434.597 760.58 432.341 759.34 430.092C743.215 400.837 722.136 373.888 696.329 350.596C695.001 349.398 693.655 348.214 692.299 347.031C691.339 346.195 690.369 345.361 689.392 344.538C688.866 344.093 688.343 343.657 687.819 343.221C680.942 337.448 673.773 331.919 666.278 326.671L662.092 332.648L650.395 349.353L582.386 446.468L579.612 450.43L530.699 520.285L514.476 543.454L512.334 546.513L487.91 581.394L409.317 693.636L400.524 706.194L338.535 794.723L327.317 810.745L312.692 831.632C334.633 846.995 357.877 859.093 381.845 868.047C383.781 868.771 385.711 869.467 387.659 870.149C388.589 870.472 389.518 870.786 390.446 871.099C391.667 871.514 392.887 871.928 394.114 872.321C395.072 872.629 396.032 872.947 396.988 873.246C398.332 873.669 399.673 874.072 401.013 874.476C432.05 883.778 464.037 887.987 495.782 887.314C498.251 887.265 500.713 887.176 503.172 887.067L503.181 887.066C505.65 886.955 508.103 886.817 510.561 886.648C519.46 886.033 528.331 885.038 537.136 883.658C538.559 883.437 539.969 883.199 541.389 882.959C541.921 882.865 542.456 882.791 542.988 882.697C543.391 882.626 543.803 882.543 544.207 882.472C545.673 882.203 547.128 881.936 548.591 881.648C549.68 881.436 550.778 881.212 551.866 880.989C552.512 880.855 553.147 880.713 553.794 880.578C555.947 880.118 558.096 879.637 560.232 879.139C560.484 879.074 560.739 879.019 561.001 878.952C575.628 875.469 590.016 870.912 604.038 865.322C606.22 864.45 608.406 863.546 610.569 862.627C610.607 862.61 610.644 862.593 610.682 862.576C612.816 861.662 614.946 860.728 617.061 859.766C617.136 859.732 617.202 859.701 617.277 859.667C619.364 858.72 621.437 857.745 623.505 856.751C623.609 856.702 623.702 856.656 623.805 856.607C625.844 855.618 627.88 854.609 629.91 853.571C630.031 853.509 630.143 853.448 630.264 853.386C632.275 852.351 634.274 851.308 636.266 850.226C636.387 850.164 636.507 850.092 636.628 850.03C638.62 848.948 640.599 847.848 642.565 846.729C642.676 846.669 642.785 846.599 642.887 846.54C644.869 845.399 646.849 844.248 648.812 843.059C648.886 843.015 648.949 842.973 649.023 842.93C683.041 822.381 713.582 794.89 738.402 760.873C739.598 759.251 740.781 757.61 741.941 755.954C743.101 754.297 744.236 752.614 745.362 750.933C746.085 749.851 746.808 748.769 747.519 747.679C768.011 716.355 782.054 682.604 789.974 647.993ZM765.285 623.325L736.494 610.693L727.531 559.857L750.265 538.139L771.156 518.178C771.938 521.807 772.671 525.446 773.317 529.109C779.073 561.755 779.206 594.642 773.759 627.04L765.285 623.325ZM537.776 863.277L527.046 858.569L518.082 807.733L540.816 786.015L563.55 764.298L592.341 776.93L621.152 789.559L628.574 831.65C600.871 846.902 570.987 857.441 539.533 862.988C538.943 863.102 538.359 863.184 537.776 863.277ZM527.506 559.708L556.276 572.334L585.076 584.965L594.04 635.801L571.306 657.519L548.572 679.236L519.781 666.604L490.99 653.972L485.06 620.34L527.506 559.708ZM606.906 651.18L635.697 663.813L664.488 676.445L673.452 727.281L650.718 748.999L627.984 770.716L599.193 758.084L570.402 745.452L561.438 694.616L584.172 672.898L606.906 651.18ZM438.672 716.263L461.406 694.545L484.14 672.827L512.931 685.46L541.722 698.092L550.686 748.928L527.952 770.646L505.217 792.363L476.427 779.731L447.636 767.099L438.672 716.263ZM434.403 692.686L468.828 643.521L471.286 657.456L448.551 679.174L434.403 692.686ZM640.848 786.086L663.582 764.368L686.316 742.651L715.107 755.283L716.989 756.109C697.282 781.517 673.773 803.158 646.93 820.635L640.838 786.088L640.848 786.086ZM642.529 644.97L613.736 632.328L604.773 581.492L627.507 559.774L650.241 538.057L679.032 550.689L707.823 563.322L716.787 614.157L694.052 635.875L671.318 657.593L642.529 644.97ZM685.864 531.847L657.073 519.214L648.109 468.378L670.843 446.661L693.577 424.943L722.368 437.576L746.195 448.027C748.773 453.086 751.218 458.199 753.484 463.394L760.123 501.044L737.389 522.761L714.655 544.479L685.864 531.847ZM728.923 418.599L700.417 406.089L695.35 377.352C707.788 390.015 719 403.787 728.923 418.599ZM671.757 358.726L680.721 409.562L657.987 431.28L635.253 452.997L609.995 441.915L669.071 357.545L671.757 358.726ZM599.622 459.219L628.413 471.851L637.377 522.687L614.642 544.405L591.908 566.123L563.117 553.49L539.213 543.002L598.29 458.631L599.622 459.219ZM416.29 718.554L418.976 719.736L427.939 770.571L405.205 792.289L382.471 814.007L357.213 802.925L416.29 718.554ZM345.506 819.631L375.639 832.849L377.768 844.923C365.098 839.582 352.816 833.33 340.941 826.163L345.506 819.631ZM399.512 853.061L395.337 829.386L418.071 807.669L440.805 785.951L469.596 798.583L498.387 811.216L507.351 862.052L502.041 867.121C477.581 868.225 453.149 866.207 429.038 861.055C419.022 858.902 409.169 856.232 399.512 853.061ZM721.939 736.44L693.148 723.808L684.184 672.972L706.918 651.255L729.653 629.537L758.444 642.169L769.648 647.088C761.673 680.064 748.005 711.099 728.94 739.521L721.939 736.44Z" fill="#4C98CD"/>
</svg>
